<?xml version="1.0" encoding="UTF-8" standalone="no"?>
<!-- Created with Inkscape (http://www.inkscape.org/) -->

<svg
   width="144.72731mm"
   height="141.11124mm"
   viewBox="0 0 144.72731 141.11124"
   version="1.1"
   id="svg5"
   inkscape:version="1.1.2 (b8e25be833, 2022-02-05)"
   sodipodi:docname="github.svg"
   xmlns:inkscape="http://www.inkscape.org/namespaces/inkscape"
   xmlns:sodipodi="http://sodipodi.sourceforge.net/DTD/sodipodi-0.dtd"
   xmlns="http://www.w3.org/2000/svg"
   xmlns:svg="http://www.w3.org/2000/svg">
  <sodipodi:namedview
     id="namedview7"
     pagecolor="#ffffff"
     bordercolor="#666666"
     borderopacity="1.0"
     inkscape:pageshadow="2"
     inkscape:pageopacity="0.0"
     inkscape:pagecheckerboard="0"
     inkscape:document-units="mm"
     showgrid="false"
     fit-margin-top="0"
     fit-margin-left="0"
     fit-margin-right="0"
     fit-margin-bottom="0"
     inkscape:zoom="0.64052329"
     inkscape:cx="308.34164"
     inkscape:cy="386.40281"
     inkscape:window-width="1782"
     inkscape:window-height="999"
     inkscape:window-x="-2475"
     inkscape:window-y="357"
     inkscape:window-maximized="0"
     inkscape:current-layer="layer1" />
  <defs
     id="defs2" />
  <g
     inkscape:label="Ebene 1"
     inkscape:groupmode="layer"
     id="layer1"
     transform="translate(-23.469464,-46.34424)">
    <path
       d="m 71.877226,159.9668 c 0,0.58358 -0.67111,1.05044 -1.5173,1.05044 -0.9629,0.0875 -1.63402,-0.37932 -1.63402,-1.05044 0,-0.58357 0.67112,-1.05044 1.5173,-1.05044 0.87537,-0.0875 1.63402,0.37933 1.63402,1.05044 z m -9.07463,-1.31304 c -0.204252,0.58357 0.37933,1.25469 1.25469,1.42976 0.75865,0.29179 1.63402,0 1.80909,-0.58358 0.17508,-0.58358 -0.37932,-1.25469 -1.25469,-1.5173 -0.75865,-0.20425 -1.60484,0.0875 -1.80909,0.67112 z m 12.89707,-0.49605 c -0.84619,0.20426 -1.42977,0.75865 -1.34223,1.42977 0.0875,0.58358 0.84618,0.9629 1.72155,0.75865 0.84619,-0.20425 1.42977,-0.75865 1.34223,-1.34223 -0.0875,-0.5544 -0.87537,-0.93372 -1.72155,-0.84619 z m 19.1997,-111.81347 c -40.471109,0 -71.429902,30.725362 -71.429902,71.19647 0,32.35938 20.366859,60.05014 49.458202,69.79589 3.7349,0.67111 5.04795,-1.63402 5.04795,-3.53065 0,-1.80909 -0.0875,-11.78827 -0.0875,-17.91583 0,0 -20.425219,4.37683 -24.714514,-8.69531 0,0 -3.326392,-8.49105 -8.111729,-10.67947 0,0 -6.681964,-4.58108 0.466862,-4.49355 0,0 7.265541,0.58358 11.263048,7.52815 6.390173,11.26305 17.098823,8.0242 21.271403,6.09839 0.67112,-4.66862 2.56774,-7.90748 4.66862,-9.83328 -16.31099,-1.80909 -32.767881,-4.17258 -32.767881,-32.24267 0,-8.02419 2.217595,-12.05088 6.886216,-17.186359 -0.758651,-1.896627 -3.238856,-9.716567 0.758651,-19.81246 6.098384,-1.896627 20.133424,7.878298 20.133424,7.878298 5.83578,-1.634018 12.10924,-2.480205 18.32434,-2.480205 6.215104,0 12.488564,0.846187 18.324344,2.480205 0,0 14.03504,-9.804104 20.13343,-7.878298 3.9975,10.125071 1.5173,17.915833 0.75865,19.81246 4.66862,5.164659 7.52815,9.191349 7.52815,17.186359 0,28.15762 -17.18636,30.4044 -33.49736,32.24267 2.68446,2.30513 4.96041,6.68196 4.96041,13.539 0,9.83328 -0.0875,22.00087 -0.0875,24.39354 0,1.89663 1.34222,4.20176 5.04794,3.53065 29.17888,-9.68739 48.96216,-37.37815 48.96216,-69.73753 0,-40.471108 -32.82624,-71.19647 -73.297344,-71.19647 z M 51.831336,146.9822 c -0.379325,0.29179 -0.291788,0.96291 0.204253,1.5173 0.466862,0.46687 1.137976,0.67112 1.517301,0.29179 0.379326,-0.29179 0.291789,-0.9629 -0.204252,-1.5173 -0.466862,-0.46686 -1.137976,-0.67111 -1.517302,-0.29179 z m -3.151319,-2.36349 c -0.204252,0.37933 0.08754,0.84619 0.671115,1.13798 0.466862,0.29179 1.050439,0.20425 1.254691,-0.20425 0.204253,-0.37933 -0.08754,-0.84619 -0.671114,-1.13798 -0.583577,-0.17507 -1.05044,-0.0875 -1.254692,0.20425 z m 9.453958,10.38768 c -0.466862,0.37933 -0.291789,1.2547 0.379325,1.8091 0.671114,0.67111 1.517302,0.75865 1.896627,0.29178 0.379326,-0.37932 0.204253,-1.25469 -0.379325,-1.80909 -0.641935,-0.67111 -1.517302,-0.75865 -1.896627,-0.29179 z m -3.326393,-4.28929 c -0.466862,0.29179 -0.466862,1.05044 0,1.72155 0.466862,0.67112 1.254692,0.96291 1.634018,0.67112 0.466862,-0.37933 0.466862,-1.13798 0,-1.80909 -0.408505,-0.67112 -1.167156,-0.96291 -1.634018,-0.58358 z"
       id="path824"
       style="stroke-width:0.291789" />
  </g>
</svg>
