<?xml version="1.0" encoding="UTF-8" standalone="no"?>
<!-- Created with Inkscape (http://www.inkscape.org/) -->

<svg
   width="147.77515mm"
   height="147.7751mm"
   viewBox="0 0 147.77515 147.7751"
   version="1.1"
   id="svg5"
   inkscape:version="1.1.2 (b8e25be833, 2022-02-05)"
   sodipodi:docname="linkedin.svg"
   xmlns:inkscape="http://www.inkscape.org/namespaces/inkscape"
   xmlns:sodipodi="http://sodipodi.sourceforge.net/DTD/sodipodi-0.dtd"
   xmlns="http://www.w3.org/2000/svg"
   xmlns:svg="http://www.w3.org/2000/svg">
  <sodipodi:namedview
     id="namedview7"
     pagecolor="#ffffff"
     bordercolor="#666666"
     borderopacity="1.0"
     inkscape:pageshadow="2"
     inkscape:pageopacity="0.0"
     inkscape:pagecheckerboard="0"
     inkscape:document-units="mm"
     showgrid="false"
     fit-margin-top="0"
     fit-margin-left="0"
     fit-margin-right="0"
     fit-margin-bottom="0"
     inkscape:zoom="0.64052329"
     inkscape:cx="325.5151"
     inkscape:cy="402.01505"
     inkscape:window-width="1782"
     inkscape:window-height="999"
     inkscape:window-x="-2475"
     inkscape:window-y="357"
     inkscape:window-maximized="0"
     inkscape:current-layer="layer1" />
  <defs
     id="defs2" />
  <g
     inkscape:label="Ebene 1"
     inkscape:groupmode="layer"
     id="layer1"
     transform="translate(-18.771759,-42.059605)">
    <path
       d="m 92.659353,42.059605 c -40.80443,0 -73.887594,33.08324 -73.887594,73.887555 0,40.80443 33.083164,73.88755 73.887594,73.88755 40.804317,0 73.887557,-33.08312 73.887557,-73.88755 0,-40.804315 -33.08324,-73.887555 -73.887557,-73.887555 z m -27.7325,33.2679 c 5.18447,0 8.63868,3.45421 8.63868,8.05991 0,4.6057 -3.45421,8.05991 -9.21127,8.05991 -5.18447,0.006 -8.63868,-3.45421 -8.63868,-8.05991 0,-4.6057 3.45421,-8.05991 9.21127,-8.05991 z m 9.26062,71.406215 H 55.715583 V 97.475265 h 18.47189 z m 61.572877,0 h -17.38813 v -26.91974 c 0,-7.44414 -4.63653,-9.16205 -6.37283,-9.16205 -1.73641,0 -7.53653,1.14496 -7.53653,9.16205 0,1.14497 0,26.91974 0,26.91974 H 86.502023 V 97.475265 h 17.967007 v 6.871555 c 2.31506,-4.00832 6.9516,-6.871555 15.64566,-6.871555 8.69406,0 15.64566,6.871555 15.64566,22.338715 z"
       id="path918"
       style="stroke-width:6.1573" />
  </g>
</svg>
