<?xml version="1.0" encoding="UTF-8" standalone="no"?>
<!-- Created with Inkscape (http://www.inkscape.org/) -->

<svg
   width="159.97214mm"
   height="160.09384mm"
   viewBox="0 0 159.97214 160.09384"
   version="1.1"
   id="svg5"
   inkscape:version="1.1.2 (b8e25be833, 2022-02-05)"
   sodipodi:docname="mail.svg"
   xmlns:inkscape="http://www.inkscape.org/namespaces/inkscape"
   xmlns:sodipodi="http://sodipodi.sourceforge.net/DTD/sodipodi-0.dtd"
   xmlns="http://www.w3.org/2000/svg"
   xmlns:svg="http://www.w3.org/2000/svg">
  <sodipodi:namedview
     id="namedview7"
     pagecolor="#ffffff"
     bordercolor="#666666"
     borderopacity="1.0"
     inkscape:pageshadow="2"
     inkscape:pageopacity="0.0"
     inkscape:pagecheckerboard="0"
     inkscape:document-units="mm"
     showgrid="false"
     fit-margin-top="0"
     fit-margin-left="0"
     fit-margin-right="0"
     fit-margin-bottom="0"
     inkscape:zoom="0.64052329"
     inkscape:cx="298.9743"
     inkscape:cy="281.02023"
     inkscape:window-width="2880"
     inkscape:window-height="1706"
     inkscape:window-x="-2891"
     inkscape:window-y="-196"
     inkscape:window-maximized="1"
     inkscape:current-layer="layer1" />
  <defs
     id="defs2" />
  <g
     inkscape:label="Ebene 1"
     inkscape:groupmode="layer"
     id="layer1"
     transform="translate(-25.8553,-73.944286)">
    <path
       style="fill:#000000;stroke-width:0.168024"
       d="m 100.62214,233.87392 c -23.283395,-1.54052 -44.532421,-13.05556 -58.755246,-31.84 -11.014839,-14.54757 -16.770793,-33.1274 -15.931063,-51.42439 0.661991,-14.42419 4.771528,-27.52354 12.433129,-39.63121 4.974751,-7.86163 11.903915,-15.331129 19.612253,-21.141609 8.336313,-6.28386 18.285206,-10.98931 28.694928,-13.57165 9.51538,-2.36047 20.005709,-2.94118 29.740269,-1.64632 24.83272,3.30317 46.48501,17.86366 59.06604,39.720059 1.3754,2.38942 3.76721,7.34479 4.78493,9.91342 2.609,6.58495 4.345,13.54836 5.2361,21.00301 0.43187,3.61293 0.43198,13.85999 1.7e-4,17.47451 -1.15985,9.70891 -3.60918,18.09664 -7.75231,26.5478 -10.26632,20.94127 -29.31205,36.45021 -51.88305,42.24838 -8.03599,2.06433 -16.97223,2.89544 -25.24615,2.348 z m 52.42724,-43.65059 c 0.83332,-0.37855 1.60897,-1.13674 2.0298,-1.9841 0.30986,-0.62393 0.3188,-1.5869 0.3188,-34.33076 v -33.68883 l -0.46581,-0.79242 c -0.56784,-0.96599 -1.36059,-1.59438 -2.40972,-1.91013 -1.21412,-0.36539 -92.020168,-0.3563 -93.245744,0.009 -1.106217,0.33004 -2.045163,1.13842 -2.528885,2.17724 l -0.396744,0.85202 0.0057,33.35278 c 0.0047,27.42719 0.0457,33.46479 0.230712,33.98322 0.352296,0.98719 1.018528,1.73303 1.972876,2.2086 l 0.87781,0.43743 46.467675,-0.004 c 44.63943,-0.004 46.49426,-0.0158 47.14349,-0.3107 z m -83.399679,-7.89525 c 0.0308,-0.0795 4.743879,-5.42541 10.4735,-11.87987 5.729622,-6.45447 10.544757,-11.89014 10.7003,-12.07927 0.276694,-0.33645 0.382004,-0.24556 4.872698,4.20541 2.524441,2.50211 4.933031,4.74533 5.352421,4.98494 1.57277,0.89858 2.77375,1.193 4.86628,1.193 1.53092,0 2.14168,-0.0733 2.94042,-0.35286 2.00533,-0.70189 2.56219,-1.14756 7.26345,-5.81318 2.51628,-2.4972 4.60382,-4.50725 4.63898,-4.46677 0.0352,0.0405 4.87586,5.49911 10.75712,12.13027 5.88127,6.63117 10.69322,12.09405 10.69322,12.13974 0,0.0457 -16.33823,0.0831 -36.30719,0.0831 -20.19262,0 -36.282349,-0.0641 -36.251199,-0.14448 z m -5.068727,-28.80779 v -22.1353 l 10.291475,10.35456 c 5.660311,5.69501 10.313148,10.41195 10.339636,10.48209 0.03483,0.0922 -18.529086,21.19277 -20.400352,23.18791 -0.19574,0.2087 -0.230759,-3.11313 -0.230759,-21.88926 z m 72.370636,10.5552 c -5.6161,-6.32946 -10.24312,-11.60331 -10.28229,-11.71968 -0.0392,-0.11638 4.57331,-4.89946 10.24995,-10.62909 l 10.32117,-10.41749 0.004,22.13717 c 0.002,12.17545 -0.0152,22.13718 -0.0389,22.13718 -0.0237,0 -4.63805,-5.17864 -10.25415,-11.50809 z m -33.54713,-5.25231 c -0.99541,-0.99345 -8.865985,-8.89478 -17.490149,-17.55852 L 70.234032,125.5124 h 35.692698 35.69268 l -17.55791,17.55852 c -17.19664,17.19723 -17.57117,17.55851 -18.20254,17.55851 -0.59528,0 -0.7832,-0.13829 -2.45448,-1.80625 z"
       id="path872" />
  </g>
</svg>
