<svg viewBox="0 0 160 160.1" version="1.1" xmlns="http://www.w3.org/2000/svg"><path d="M100.6 233.9A80 80 0 1 1 111.2 74a80 80 0 0 1-10.6 159.8zm52.4-43.7c.9-.4 1.7-1.1 2-2 .4-.6.4-1.5.4-34.3v-33.7l-.5-.8a4 4 0 0 0-2.4-1.9c-1.2-.3-92-.3-93.2 0-1.1.4-2 1.2-2.6 2.2l-.3.9v33.3c0 27.4 0 33.5.2 34 .3 1 1 1.7 2 2.2l.8.4H106c44.6 0 46.5 0 47.1-.3zm-83.4-7.9a1186.4 1186.4 0 0 1 21.2-24c.3-.3.4-.2 4.9 4.3 2.5 2.5 5 4.7 5.3 5 1.6.9 2.8 1.2 5 1.2 1.4 0 2-.1 2.9-.4 2-.7 2.5-1.1 7.2-5.8a107 107 0 0 1 4.7-4.5 66680.8 66680.8 0 0 0 21.4 24.3 3989.3 3989.3 0 0 1-72.6 0zm-5-28.8v-22.1l10.3 10.3 10.3 10.5c0 .1-18.5 21.2-20.4 23.2-.2.2-.2-3.1-.2-21.9zm72.4 10.6a718.3 718.3 0 0 1-10.3-11.7c0-.2 4.5-5 10.2-10.7l10.3-10.4v44.3L137 164zm-33.6-5.3-17.5-17.5-15.7-15.8h71.4l-17.5 17.6c-17.2 17.2-17.6 17.5-18.2 17.5-.6 0-.8-.1-2.5-1.8z" stroke-width=".2" transform="translate(-25.9 -74)"/></svg>