<svg viewBox="0 0 144.7 141.1" version="1.1" xmlns="http://www.w3.org/2000/svg"><path d="M71.9 160c0 .6-.7 1-1.5 1-1 .1-1.7-.4-1.7-1s.7-1 1.5-1c1-.2 1.7.3 1.7 1zm-9.1-1.3c-.2.5.4 1.2 1.3 1.4.7.3 1.6 0 1.8-.6.1-.6-.4-1.3-1.3-1.5-.7-.2-1.6 0-1.8.7zm12.9-.5c-.8.2-1.4.7-1.3 1.4 0 .6.8 1 1.7.7.8-.2 1.4-.7 1.3-1.3 0-.6-.9-1-1.7-.8zM94.9 46.3a70 70 0 0 0-71.4 71.2c0 32.4 20.3 60 49.4 69.8 3.8.7 5-1.6 5-3.5v-18s-20.4 4.5-24.7-8.6c0 0-3.4-8.5-8.1-10.7 0 0-6.7-4.6.4-4.5 0 0 7.3.6 11.3 7.5 6.4 11.3 17 8 21.3 6.1.6-4.6 2.5-7.9 4.6-9.8C66.4 144 50 141.6 50 113.6c0-8 2.2-12 6.9-17.2-.8-2-3.3-9.7.7-19.8 6.1-2 20.1 7.9 20.1 7.9a68.6 68.6 0 0 1 36.7 0s14-9.9 20.1-8c4 10.2 1.5 18 .8 19.9 4.7 5.2 7.5 9.2 7.5 17.2 0 28.1-17.2 30.4-33.5 32.2 2.7 2.3 5 6.7 5 13.6l-.1 24.3c0 2 1.3 4.2 5 3.6a72.5 72.5 0 0 0 49-69.8 71.5 71.5 0 0 0-73.3-71.2zM51.9 147c-.4.3-.4 1 .1 1.5s1.2.7 1.6.3c.3-.3.2-1-.3-1.5-.4-.5-1-.7-1.5-.3zm-3.2-2.4c-.2.4 0 .9.7 1.2.4.2 1 .2 1.2-.2.2-.4 0-.9-.7-1.2-.5-.2-1 0-1.2.2zM58 155c-.4.4-.3 1.3.4 1.8.7.7 1.5.8 2 .3.3-.4.1-1.2-.5-1.8-.6-.7-1.5-.8-1.9-.3zm-3.3-4.3c-.5.3-.5 1 0 1.7s1.3 1 1.6.7c.5-.4.5-1.1 0-1.8-.4-.7-1.1-1-1.6-.6z" stroke-width=".3" transform="translate(-23.5 -46.3)"/></svg>